<svg width="60" height="92" viewBox="0 0 60 92" fill="none" xmlns="http://www.w3.org/2000/svg">
<path d="M14.148 92C6.416 92 0.148001 85.732 0.148001 78C0.148001 70.268 6.416 64 14.148 64H28.148V78C28.148 85.732 21.88 92 14.148 92ZM46 28H32V0H46C53.732 0 60 6.268 60 14C60 21.732 53.732 28 46 28ZM14 28H28V0H14C6.268 0 0 6.268 0 14C0 21.732 6.268 28 14 28ZM14 60H28V32H14C6.268 32 0 38.268 0 46C0 53.732 6.268 60 14 60ZM44 32C40.8174 32 37.7652 33.2643 35.5147 35.5147C33.2643 37.7652 32 40.8174 32 44C32 47.1826 33.2643 50.2348 35.5147 52.4853C37.7652 54.7357 40.8174 56 44 56C47.1826 56 50.2348 54.7357 52.4853 52.4853C54.7357 50.2348 56 47.1826 56 44C56 40.8174 54.7357 37.7652 52.4853 35.5147C50.2348 33.2643 47.1826 32 44 32Z" fill="black"/>
</svg>
