<?xml version="1.0" standalone="no"?>
<!DOCTYPE svg PUBLIC "-//W3C//DTD SVG 20010904//EN"
 "http://www.w3.org/TR/2001/REC-SVG-20010904/DTD/svg10.dtd">
<svg version="1.0" xmlns="http://www.w3.org/2000/svg"
 width="550.000000pt" height="550.000000pt" viewBox="0 0 550.000000 550.000000"
 preserveAspectRatio="xMidYMid meet">

<g transform="translate(0.000000,550.000000) scale(0.100000,-0.100000)"
fill="#000000" stroke="none">
<path d="M2447 3053 c-4 -3 -7 -392 -7 -863 0 -942 1 -924 -61 -994 -45 -52
-101 -69 -206 -64 -71 4 -99 10 -141 32 -66 34 -133 94 -174 157 -17 27 -34
47 -37 45 -3 -1 -93 -56 -199 -121 -151 -92 -192 -121 -187 -134 3 -9 20 -40
38 -69 114 -191 313 -341 532 -403 113 -32 321 -33 449 -1 237 59 393 210 468
454 l23 73 3 948 3 947 -249 0 c-137 0 -252 -3 -255 -7z"/>
<path d="M3930 3049 c-275 -30 -492 -193 -576 -434 -25 -72 -28 -94 -29 -215
0 -114 4 -147 23 -210 35 -112 79 -185 157 -266 108 -110 219 -175 550 -320
250 -109 315 -176 315 -320 -1 -92 -51 -162 -145 -206 -43 -20 -66 -23 -165
-23 -109 0 -119 2 -184 33 -80 38 -168 122 -235 225 -24 37 -45 67 -47 67 -5
0 -365 -239 -378 -251 -15 -13 83 -158 163 -242 80 -84 174 -152 268 -193 150
-67 378 -97 563 -75 133 16 199 36 319 93 137 66 228 153 289 279 122 249 85
567 -89 763 -106 118 -228 193 -539 331 -323 143 -371 183 -378 315 -3 53 0
75 17 109 56 110 211 149 354 89 49 -21 150 -119 162 -158 4 -13 12 -19 20
-16 23 8 365 227 371 237 9 16 -68 122 -142 195 -157 154 -390 222 -664 193z"/>
</g>
</svg>
